<svg width="177" height="60" viewBox="0 0 177 60" fill="none" xmlns="http://www.w3.org/2000/svg">
<rect width="177" height="60" rx="30" fill="#272627"/>
<path d="M55.2617 39.9476H53.1523V18.9476H55.2617V39.9476ZM50.9727 38.9164H48.8633V31.7679H45.2773V29.9398H48.8633V26.5179H45.6172C44.5469 30.2523 42.1445 33.2367 38.4102 35.4711L37.0977 33.8773C39.2852 32.5804 40.9453 31.057 42.0781 29.307C43.2188 27.557 43.8867 25.5804 44.082 23.3773H38.1289V21.5492H46.2852C46.2852 22.6429 46.1992 23.6898 46.0273 24.6898H48.8633V19.4867H50.9727V38.9164ZM77.1523 31.2054H57.957V29.3773H66.418V26.307H68.6211V29.3773H77.1523V31.2054ZM68.6445 20.1664C68.6445 21.0414 68.9727 21.8695 69.6289 22.6508C70.2852 23.432 71.1719 24.0922 72.2891 24.6312C73.4062 25.1703 74.6367 25.5258 75.9805 25.6976L75.1133 27.4554C73.418 27.1898 71.8867 26.6625 70.5195 25.8734C69.1602 25.0844 68.1562 24.1234 67.5078 22.9906C66.8516 24.1312 65.8398 25.0961 64.4727 25.8851C63.1133 26.6664 61.582 27.1898 59.8789 27.4554L59.0586 25.6976C60.3867 25.5258 61.6094 25.1703 62.7266 24.6312C63.8516 24.0922 64.7422 23.432 65.3984 22.6508C66.0547 21.8617 66.3867 21.0336 66.3945 20.1664V19.2758H68.6445V20.1664ZM74.7617 39.9476H72.5117V34.8148H60.0898V33.057H74.7617V39.9476ZM95.0586 27.4554H98.4336V29.307H95.0586V39.9476H92.8555V18.9476H95.0586V27.4554ZM91.0273 24.057H78.582V22.2289H83.7617V19.2289H85.9883V22.2289H91.0273V24.057ZM84.8867 25.6039C85.8789 25.6039 86.7695 25.8109 87.5586 26.225C88.3477 26.639 88.9688 27.2172 89.4219 27.9594C89.875 28.7015 90.1055 29.5414 90.1133 30.4789C90.1055 31.4242 89.875 32.2679 89.4219 33.0101C88.9688 33.7523 88.3477 34.3304 87.5586 34.7445C86.7695 35.1586 85.8789 35.3695 84.8867 35.3773C83.8867 35.3695 82.9883 35.1586 82.1914 34.7445C81.4023 34.3304 80.7812 33.7523 80.3281 33.0101C79.8828 32.2679 79.6602 31.4242 79.6602 30.4789C79.6602 29.5414 79.8828 28.7015 80.3281 27.9594C80.7812 27.2172 81.4023 26.639 82.1914 26.225C82.9883 25.8109 83.8867 25.6039 84.8867 25.6039ZM84.8867 27.432C84.3008 27.432 83.7695 27.5609 83.293 27.8187C82.8164 28.0765 82.4453 28.4359 82.1797 28.8969C81.9141 29.3578 81.7852 29.8851 81.793 30.4789C81.7852 31.0804 81.9141 31.6117 82.1797 32.0726C82.4453 32.5336 82.8125 32.889 83.2812 33.139C83.7578 33.389 84.293 33.5101 84.8867 33.5023C85.4727 33.5101 86 33.389 86.4688 33.139C86.9453 32.889 87.3164 32.5336 87.582 32.0726C87.8477 31.6117 87.9805 31.0804 87.9805 30.4789C87.9805 29.8851 87.8477 29.3578 87.582 28.8969C87.3164 28.4359 86.9453 28.0765 86.4688 27.8187C86 27.5609 85.4727 27.432 84.8867 27.432ZM116.902 39.9476H114.652V18.9476H116.902V39.9476ZM110.645 21.1976C110.645 24.4476 109.867 27.3383 108.312 29.8695C106.766 32.3929 104.27 34.4789 100.824 36.1273L99.6523 34.3226C102.41 33.0101 104.5 31.4125 105.922 29.5297C107.352 27.6469 108.176 25.4633 108.395 22.9789H100.66V21.1976H110.645Z" fill="white"/>
<path d="M139.545 20.5021C139.124 20.0143 138.364 20.0272 137.959 20.529V20.529C137.648 20.9156 137.655 21.4691 137.977 21.847L144.368 29.3477L137.977 36.8483C137.655 37.2262 137.648 37.7797 137.959 38.1663V38.1663C138.364 38.6682 139.124 38.6811 139.545 38.1932L146.616 30.005C146.942 29.6274 146.942 29.0679 146.616 28.6903L139.545 20.5021Z" fill="white"/>
</svg>
